<?xml version="1.0" standalone="no"?>
<!DOCTYPE svg PUBLIC "-//W3C//DTD SVG 20010904//EN"
 "http://www.w3.org/TR/2001/REC-SVG-20010904/DTD/svg10.dtd">
<svg version="1.0" xmlns="http://www.w3.org/2000/svg"
 width="225.000000pt" height="225.000000pt" viewBox="0 0 225.000000 225.000000"
 preserveAspectRatio="xMidYMid meet">
<metadata>
Created by potrace 1.11, written by Peter Selinger 2001-2013
</metadata>
<g transform="translate(0.000000,225.000000) scale(0.100000,-0.100000)"
fill="#000000" stroke="none">
<path d="M0 1125 l0 -1125 1125 0 1125 0 0 1125 0 1125 -1125 0 -1125 0 0
-1125z m1265 444 c38 -16 145 -82 145 -90 0 -3 -15 -20 -34 -38 l-34 -33 -42
31 c-89 65 -192 76 -280 31 -101 -51 -105 -167 -8 -223 23 -14 93 -42 154 -61
122 -40 183 -74 231 -129 102 -116 51 -291 -107 -365 -49 -24 -67 -26 -170
-26 -104 0 -121 2 -173 27 -58 26 -137 82 -137 96 0 4 14 21 31 38 l30 32 52
-40 c91 -69 199 -87 300 -49 108 41 154 130 107 208 -29 47 -99 87 -223 127
-161 52 -220 91 -252 167 -50 120 18 250 157 300 61 21 200 20 253 -3z"/>
</g>
</svg>
