<?xml version="1.0" encoding="UTF-8"?>
<!DOCTYPE svg PUBLIC "-//W3C//DTD SVG 1.1//EN" "http://www.w3.org/Graphics/SVG/1.1/DTD/svg11.dtd">
<!-- Creator: CorelDRAW 2019 (64-Bit) -->
<svg xmlns="http://www.w3.org/2000/svg" xml:space="preserve" width="210mm" height="297mm" version="1.1" style="shape-rendering:geometricPrecision; text-rendering:geometricPrecision; image-rendering:optimizeQuality; fill-rule:evenodd; clip-rule:evenodd"
viewBox="0 0 21000 29700"
 xmlns:xlink="http://www.w3.org/1999/xlink">
 <defs>
  <style type="text/css">
   <![CDATA[
    .fil0 {fill:#FF577C}
   ]]>
  </style>
 </defs>
 <g id="Слой_x0020_1">
  <metadata id="CorelCorpID_0Corel-Layer"/>
  <g id="layer101">
   <path class="fil0" d="M10010.52 15223.06c0,-50.27 76.73,-150.81 232.83,-309.56l89.96 -87.31 -161.4 -150.81c-89.96,-82.02 -161.4,-171.98 -161.4,-198.44 0,-42.33 21.17,-50.27 148.17,-50.27 145.78,0 123.6,43.63 222.25,137.59l100.54 97.9 100.54 -119.06c97.9,-113.77 105.83,-116.42 254,-116.42 84.67,0 153.46,10.58 153.46,21.17 0,10.58 -76.73,100.54 -171.98,201.08l-174.62 182.56 174.63 161.4c216.96,201.08 232.83,280.46 55.56,280.46 -71.44,0 -127,-15.88 -148.17,-39.69 -2.4,-3 -140.88,-152.49 -158.75,-171.98 -52.92,-63.5 -95.25,-68.79 -124.35,-15.88 -10.58,21.17 -60.85,79.38 -108.48,132.29 -74.08,82.02 -103.19,95.25 -203.73,95.25 -100.54,0 -119.06,-7.94 -119.06,-50.27l0 -0.01z"/>
  </g>
 </g>
</svg>
