<?xml version="1.0" encoding="UTF-8"?>
<!DOCTYPE svg PUBLIC "-//W3C//DTD SVG 1.1//EN" "http://www.w3.org/Graphics/SVG/1.1/DTD/svg11.dtd">
<!-- Creator: CorelDRAW 2019 (64-Bit) -->
<svg xmlns="http://www.w3.org/2000/svg" xml:space="preserve" width="210mm" height="297mm" version="1.1" style="shape-rendering:geometricPrecision; text-rendering:geometricPrecision; image-rendering:optimizeQuality; fill-rule:evenodd; clip-rule:evenodd"
viewBox="0 0 21000 29700"
 xmlns:xlink="http://www.w3.org/1999/xlink">
 <defs>
  <style type="text/css">
   <![CDATA[
    .fil0 {fill:#FF577C}
   ]]>
  </style>
 </defs>
 <g id="Слой_x0020_1">
  <metadata id="CorelCorpID_0Corel-Layer"/>
  <g id="_2037391145184">
   <path id="Close" class="fil0" d="M12028.39 14864.67l8630.71 -8583.52c413.78,-409.6 413.78,-1072.68 0,-1481.24 -412.74,-409.6 -1083.13,-409.6 -1495.86,0l-8623.31 8576.21 -8703.08 -8704.03c-412.74,-413.78 -1083.13,-413.78 -1495.86,0 -412.74,414.83 -412.74,1086.26 0,1500.04l8696.72 8697.76 -8728.16 8679.92c-412.74,409.6 -412.74,1072.68 0,1481.24 412.74,409.6 1083.13,409.6 1495.86,0l8720.75 -8672.6 8668.42 8669.46c412.74,413.78 1083.13,413.78 1495.86,0 412.74,-414.83 412.74,-1086.26 0,-1500.04l-8662.05 -8663.2z"/>
   <g>
   </g>
   <g>
   </g>
   <g>
   </g>
   <g>
   </g>
   <g>
   </g>
   <g>
   </g>
  </g>
  <g id="_2037387728048">
  </g>
  <g id="_2037387727376">
  </g>
  <g id="_2037387727632">
  </g>
  <g id="_2037387724784">
  </g>
  <g id="_2037387725232">
  </g>
  <g id="_2037387724464">
  </g>
  <g id="_2037387720592">
  </g>
  <g id="_2037387720176">
  </g>
  <g id="_2037387718448">
  </g>
  <g id="_2037387719760">
  </g>
  <g id="_2037387716784">
  </g>
  <g id="_2037387716112">
  </g>
  <g id="_2037387716048">
  </g>
  <g id="_2037387717712">
  </g>
  <g id="_2037387729392">
  </g>
 </g>
</svg>
