<?xml version="1.0" encoding="UTF-8"?>
<!DOCTYPE svg PUBLIC "-//W3C//DTD SVG 1.1//EN" "http://www.w3.org/Graphics/SVG/1.1/DTD/svg11.dtd">
<!-- Creator: CorelDRAW 2019 (64-Bit) -->
<svg xmlns="http://www.w3.org/2000/svg" xml:space="preserve" width="210mm" height="297mm" version="1.1" style="shape-rendering:geometricPrecision; text-rendering:geometricPrecision; image-rendering:optimizeQuality; fill-rule:evenodd; clip-rule:evenodd"
viewBox="0 0 21000 29700"
 xmlns:xlink="http://www.w3.org/1999/xlink">
 <defs>
  <style type="text/css">
   <![CDATA[
    .fil0 {fill:#F81E76}
   ]]>
  </style>
 </defs>
 <g id="Слой_x0020_1">
  <metadata id="CorelCorpID_0Corel-Layer"/>
  <g id="layer101">
   <path class="fil0" d="M10348.81 14941.18c19.86,-17.45 59.35,-110.36 81.49,-139.38 -3.63,-16.87 -171.77,-221.35 -129.99,-243.2 33.63,-17.58 131.39,76.21 176.8,117.98 110.62,96.65 63.65,92.13 192.69,-37.7 142.77,-83.39 184.12,-86.75 213.01,-77.71 31.1,9.74 -136.3,151.1 -174.84,184.21l-70.77 71.44c20.29,47.87 111.13,247.27 111.13,250.03 0,5.29 -29.1,10.58 -63.5,10.58 -37.6,-17.44 -113.1,-158.42 -140.22,-209.69l-116.42 132.96c-166.4,216.05 -230.09,134.21 -79.38,-59.52z"/>
  </g>
 </g>
</svg>
